<?xml version="1.0" encoding="utf-8"?>
<!-- Generator: Adobe Illustrator 15.0.0, SVG Export Plug-In . SVG Version: 6.00 Build 0)  -->
<!DOCTYPE svg PUBLIC "-//W3C//DTD SVG 1.1//EN" "http://www.w3.org/Graphics/SVG/1.1/DTD/svg11.dtd">
<svg version="1.1" id="Layer_1" xmlns="http://www.w3.org/2000/svg" xmlns:xlink="http://www.w3.org/1999/xlink" x="0px" y="0px"
	 width="65.5px" height="458.5px" viewBox="0 0 65.5 458.5" enable-background="new 0 0 65.5 458.5" xml:space="preserve">
<g>
	<path fill="#C8C8C8" d="M19.883,44.356c0.295,0.296,0.684,0.444,1.072,0.444c0.389,0,0.776-0.148,1.072-0.444l6.72-6.721
		c1.125,0.675,2.436,1.069,3.838,1.069c0.074,0,0.145-0.013,0.215-0.022c0.073,0.011,0.144,0.022,0.217,0.022
		c4.139,0,7.506-3.369,7.506-7.508c0-0.084-0.015-0.166-0.025-0.248c0.016-0.08,0.025-0.16,0.025-0.244
		c0-4.14-3.367-7.506-7.507-7.506c-0.072,0-0.143,0.012-0.217,0.021c-0.07-0.01-0.141-0.021-0.214-0.021
		c-4.139,0-7.507,3.367-7.507,7.506c0,0.085,0.011,0.167,0.025,0.248c-0.013,0.081-0.025,0.16-0.025,0.244
		c0,1.642,0.535,3.156,1.432,4.392l-6.627,6.625C19.293,42.806,19.293,43.766,19.883,44.356z M32.585,35.674
		c-2.469,0-4.477-2.009-4.477-4.476c0-0.084-0.012-0.167-0.025-0.25c0.014-0.08,0.025-0.16,0.025-0.244
		c0-2.469,2.007-4.477,4.477-4.477c0.074,0,0.144-0.011,0.214-0.021c0.074,0.01,0.145,0.021,0.217,0.021
		c2.468,0,4.477,2.008,4.477,4.477c0,0.085,0.011,0.167,0.022,0.248c-0.015,0.081-0.022,0.161-0.022,0.246
		c0,2.467-2.007,4.476-4.476,4.476c-0.074,0-0.144,0.012-0.217,0.022C32.73,35.686,32.659,35.674,32.585,35.674z"/>
</g>
<g>
	<path d="M21.156,244.766c0.295,0.295,0.684,0.443,1.072,0.443c0.389,0,0.776-0.148,1.072-0.443l6.72-6.722
		c1.125,0.674,2.435,1.067,3.839,1.067c0.074,0,0.145-0.012,0.215-0.021c0.072,0.012,0.143,0.021,0.216,0.021
		c4.14,0,7.507-3.367,7.507-7.508c0-0.082-0.012-0.164-0.023-0.248c0.016-0.08,0.023-0.16,0.023-0.244
		c0-4.14-3.367-7.506-7.507-7.506c-0.073,0-0.144,0.012-0.216,0.021c-0.07-0.01-0.141-0.021-0.217-0.021
		c-4.138,0-7.505,3.366-7.505,7.506c0,0.086,0.011,0.166,0.024,0.248c-0.012,0.082-0.024,0.16-0.024,0.244
		c0,1.643,0.536,3.154,1.431,4.392l-6.626,6.625C20.566,243.214,20.566,244.173,21.156,244.766z M33.857,236.081
		c-2.469,0-4.479-2.008-4.479-4.478c0-0.084-0.012-0.166-0.025-0.248c0.015-0.08,0.025-0.16,0.025-0.244
		c0-2.469,2.008-4.479,4.479-4.479c0.074,0,0.146-0.012,0.216-0.021c0.071,0.012,0.143,0.021,0.216,0.021
		c2.468,0,4.479,2.008,4.479,4.479c0,0.084,0.01,0.166,0.022,0.248c-0.015,0.08-0.022,0.16-0.022,0.244
		c0,2.47-2.009,4.478-4.479,4.478c-0.073,0-0.145,0.013-0.216,0.022C34.003,236.093,33.934,236.081,33.857,236.081z"/>
</g>
<g>
	<g>
		<path fill="#0084B6" d="M24.75,387.642v9.534h11.971v-9.534H24.75z M32.449,396.327h-3.43v-3.604h3.43V396.327L32.449,396.327z"/>
		<polygon fill="#0084B6" points="30.734,383.73 24.027,387.64 37.441,387.64 		"/>
		<path fill="#0084B6" d="M30.509,378.775v0.23c-0.811-0.287-1.621,0.646-2.431,0.109c0,0.607,0,1.219,0,1.828
			c0.81,0.532,1.62-0.396,2.431-0.108v4.014h0.449v-6.073H30.509z"/>
	</g>
	<g>
		<g>
			<polygon fill="#1385B4" points="24.75,333.534 29.75,336.285 29.75,341.785 24.75,344.536 19.75,341.785 19.75,336.285 			"/>
			<polygon fill="#FFFFFF" stroke="#0084B6" stroke-miterlimit="10" points="29.75,325.297 34.75,328.048 34.75,333.549 
				29.75,336.299 24.75,333.549 24.75,328.048 			"/>
			<polygon fill="#FFFFFF" stroke="#0084B6" stroke-miterlimit="10" points="34.75,333.534 39.75,336.285 39.75,341.785 
				34.75,344.536 29.75,341.785 29.75,336.285 			"/>
		</g>
	</g>
	<g>
		<polygon fill="#0084B6" stroke="#FFFFFF" stroke-miterlimit="10" points="26.75,280.562 31.75,283.312 31.75,288.814 
			26.75,291.564 21.75,288.814 21.75,283.312 		"/>
		<polygon fill="#0084B6" stroke="#FFFFFF" stroke-miterlimit="10" points="31.75,272.326 36.25,275.076 36.25,280.578 
			31.75,283.328 27.25,280.578 27.25,275.076 		"/>
		<polygon fill="#0084B6" stroke="#FFFFFF" stroke-miterlimit="10" points="36.75,280.562 41.75,283.312 41.75,288.814 
			36.75,291.564 31.75,288.814 31.75,283.312 		"/>
	</g>
</g>
<g>
	<g>
		<path fill="#B3B3B3" d="M24.75,185.642v9.534h11.971v-9.534H24.75z M32.449,194.327h-3.43v-3.602h3.43V194.327L32.449,194.327z"/>
		<polygon fill="#B3B3B3" points="30.734,181.73 24.027,185.64 37.441,185.64 		"/>
		<path fill="#B3B3B3" d="M30.509,176.775v0.232c-0.811-0.287-1.621,0.645-2.431,0.109c0,0.609,0,1.219,0,1.828
			c0.81,0.534,1.62-0.396,2.431-0.108v4.014h0.449v-6.075H30.509L30.509,176.775z"/>
	</g>
	<g>
		<g>
			<polygon fill="#FFFFFF" stroke="#B3B3B3" stroke-miterlimit="10" points="31.75,123.297 36.75,126.048 36.75,131.549 
				31.75,134.299 26.75,131.549 26.75,126.048 			"/>
			<polygon fill="#FFFFFF" stroke="#B3B3B3" stroke-miterlimit="10" points="36.75,131.534 41.75,134.285 41.75,139.785 
				36.75,142.536 31.75,139.785 31.75,134.285 			"/>
			<polygon fill="#B3B3B3" points="26.75,131.534 31.75,134.285 31.75,139.785 26.75,142.536 21.75,139.785 21.75,134.285 			"/>
		</g>
	</g>
	<g>
		<polygon fill="#B3B3B3" stroke="#FFFFFF" stroke-miterlimit="10" points="26.75,78.562 31.75,81.312 31.75,86.814 26.75,89.564 
			21.75,86.814 21.75,81.312 		"/>
		<polygon fill="#B3B3B3" stroke="#FFFFFF" stroke-miterlimit="10" points="31.75,70.326 36.25,73.076 36.25,78.578 31.75,81.328 
			27.25,78.578 27.25,73.076 		"/>
		<polygon fill="#B3B3B3" stroke="#FFFFFF" stroke-miterlimit="10" points="36.75,78.562 41.75,81.312 41.75,86.814 36.75,89.564 
			31.75,86.814 31.75,81.312 		"/>
	</g>
</g>
<g>
	
		<line fill="#FFFFFF" stroke="#000000" stroke-linecap="round" stroke-linejoin="round" stroke-miterlimit="10" x1="26.93" y1="434.885" x2="33.116" y2="441.07"/>
	
		<line fill="#FFFFFF" stroke="#000000" stroke-linecap="round" stroke-linejoin="round" stroke-miterlimit="10" x1="26.93" y1="441.07" x2="33.116" y2="434.885"/>
</g>
<circle fill="none" stroke="#000000" stroke-linecap="round" stroke-linejoin="round" stroke-miterlimit="10" cx="30.045" cy="437.707" r="8.833"/>
</svg>
