<?xml version="1.0" encoding="utf-8"?>
<!-- Generator: Adobe Illustrator 15.0.0, SVG Export Plug-In . SVG Version: 6.00 Build 0)  -->
<!DOCTYPE svg PUBLIC "-//W3C//DTD SVG 1.1//EN" "http://www.w3.org/Graphics/SVG/1.1/DTD/svg11.dtd">
<svg version="1.1" id="Layer_1" xmlns="http://www.w3.org/2000/svg" xmlns:xlink="http://www.w3.org/1999/xlink" x="0px" y="0px"
	 width="190px" height="120px" viewBox="-10 -60.222 190 120" enable-background="new -10 -60.222 190 120" xml:space="preserve">
<g>
	<polygon class="bar0" points="-7.972,3.278 -10,-0.222 -7.972,-3.722 -3.915,-3.722 -1.887,-0.222 -3.915,3.278 	"/>
	<polygon class="bar1" points="37.5,3.278 35.472,-0.222 37.5,-3.722 41.557,-3.722 43.584,-0.222 41.557,3.278 	"/>
	<polygon class="bar2" points="82.971,3.278 80.943,-0.222 82.971,-3.722 87.028,-3.722 89.056,-0.222 87.028,3.278 	"/>
	<polygon class="bar3" points="128.442,3.278 126.415,-0.222 128.442,-3.722 132.501,-3.722 134.528,-0.222 132.501,3.278 	"/>
	<polygon class="bar4" points="173.914,3.278 171.887,-0.222 173.914,-3.722 177.973,-3.722 180,-0.222 177.973,3.278 	"/>
</g>
<polygon fill="none" stroke="#000000" stroke-miterlimit="10" points="-1.75,-24.888 -10,-39.888 -1.75,-54.888 14.748,-54.888 
	22.997,-39.888 14.748,-24.888 "/>
<g>
	<g>
		<line fill="none" stroke="#B3B3B3" stroke-miterlimit="10" x1="16.5" y1="40.112" x2="15.5" y2="40.112"/>
		<line fill="none" stroke="#B3B3B3" stroke-miterlimit="10" stroke-dasharray="2,2" x1="13.5" y1="40.112" x2="-4.5" y2="40.112"/>
		<line fill="none" stroke="#B3B3B3" stroke-miterlimit="10" x1="-5.5" y1="40.112" x2="-6.5" y2="40.112"/>
		<g>
			<polygon fill="#B3B3B3" points="-5.5,37.299 -9.817,39.791 -5.5,42.284 			"/>
		</g>
	</g>
</g>
</svg>
