<?xml version="1.0" encoding="utf-8"?>
<!-- Generator: Adobe Illustrator 15.0.0, SVG Export Plug-In . SVG Version: 6.00 Build 0)  -->
<!DOCTYPE svg PUBLIC "-//W3C//DTD SVG 1.1//EN" "http://www.w3.org/Graphics/SVG/1.1/DTD/svg11.dtd">
<svg version="1.1" id="Layer_1" xmlns="http://www.w3.org/2000/svg" xmlns:xlink="http://www.w3.org/1999/xlink" x="0px" y="0px"
	 width="170px" height="85px" viewBox="0 0 170 85" enable-background="new 0 0 170 85" xml:space="preserve">
<g>
	
		<line fill="none" stroke="#FFFFFF" stroke-width="2.1502" stroke-miterlimit="10" x1="-0.013" y1="0.087" x2="-91.889" y2="83.011"/>
	<line fill="none" stroke="#FFFFFF" stroke-width="2.1502" stroke-miterlimit="10" x1="8.86" y1="0.183" x2="-83.016" y2="83.107"/>
	
		<line fill="none" stroke="#FFFFFF" stroke-width="2.1502" stroke-miterlimit="10" x1="17.732" y1="0.28" x2="-74.144" y2="83.203"/>
	<line fill="none" stroke="#FFFFFF" stroke-width="2.1502" stroke-miterlimit="10" x1="26.605" y1="0.376" x2="-65.271" y2="83.3"/>
	
		<line fill="none" stroke="#FFFFFF" stroke-width="2.1502" stroke-miterlimit="10" x1="35.478" y1="0.473" x2="-56.398" y2="83.396"/>
	
		<line fill="none" stroke="#FFFFFF" stroke-width="2.1502" stroke-miterlimit="10" x1="44.351" y1="0.569" x2="-47.525" y2="83.493"/>
	
		<line fill="none" stroke="#FFFFFF" stroke-width="2.1502" stroke-miterlimit="10" x1="53.223" y1="0.666" x2="-38.652" y2="83.589"/>
	
		<line fill="none" stroke="#FFFFFF" stroke-width="2.1502" stroke-miterlimit="10" x1="62.096" y1="0.762" x2="-29.78" y2="83.686"/>
	
		<line fill="none" stroke="#FFFFFF" stroke-width="2.1502" stroke-miterlimit="10" x1="70.969" y1="0.858" x2="-20.907" y2="83.782"/>
	
		<line fill="none" stroke="#FFFFFF" stroke-width="2.1502" stroke-miterlimit="10" x1="79.841" y1="0.955" x2="-12.035" y2="83.879"/>
	
		<line fill="none" stroke="#FFFFFF" stroke-width="2.1502" stroke-miterlimit="10" x1="88.714" y1="1.051" x2="-3.162" y2="83.975"/>
	<line fill="none" stroke="#FFFFFF" stroke-width="2.1502" stroke-miterlimit="10" x1="97.587" y1="1.147" x2="5.711" y2="84.071"/>
	
		<line fill="none" stroke="#FFFFFF" stroke-width="2.1502" stroke-miterlimit="10" x1="106.459" y1="1.244" x2="14.583" y2="84.168"/>
	
		<line fill="none" stroke="#FFFFFF" stroke-width="2.1502" stroke-miterlimit="10" x1="115.332" y1="1.34" x2="23.457" y2="84.265"/>
	
		<line fill="none" stroke="#FFFFFF" stroke-width="2.1502" stroke-miterlimit="10" x1="124.204" y1="1.437" x2="32.329" y2="84.36"/>
	
		<line fill="none" stroke="#FFFFFF" stroke-width="2.1502" stroke-miterlimit="10" x1="133.077" y1="1.533" x2="41.202" y2="84.457"/>
	<line fill="none" stroke="#FFFFFF" stroke-width="2.1502" stroke-miterlimit="10" x1="141.95" y1="1.63" x2="50.074" y2="84.554"/>
	
		<line fill="none" stroke="#FFFFFF" stroke-width="2.1502" stroke-miterlimit="10" x1="150.822" y1="1.726" x2="58.947" y2="84.65"/>
	
		<line fill="none" stroke="#FFFFFF" stroke-width="2.1502" stroke-miterlimit="10" x1="159.695" y1="1.823" x2="67.82" y2="84.746"/>
	
		<line fill="none" stroke="#FFFFFF" stroke-width="2.1502" stroke-miterlimit="10" x1="168.568" y1="1.919" x2="76.692" y2="84.843"/>
	
		<line fill="none" stroke="#FFFFFF" stroke-width="2.1502" stroke-miterlimit="10" x1="177.44" y1="2.016" x2="85.565" y2="84.939"/>
	
		<line fill="none" stroke="#FFFFFF" stroke-width="2.1502" stroke-miterlimit="10" x1="186.313" y1="2.112" x2="94.438" y2="85.036"/>
	
		<line fill="none" stroke="#FFFFFF" stroke-width="2.1502" stroke-miterlimit="10" x1="195.186" y1="2.208" x2="103.311" y2="85.132"/>
	
		<line fill="none" stroke="#FFFFFF" stroke-width="2.1502" stroke-miterlimit="10" x1="204.059" y1="2.305" x2="112.184" y2="85.229"/>
	
		<line fill="none" stroke="#FFFFFF" stroke-width="2.1502" stroke-miterlimit="10" x1="212.932" y1="2.401" x2="121.056" y2="85.325"/>
	
		<line fill="none" stroke="#FFFFFF" stroke-width="2.1502" stroke-miterlimit="10" x1="221.804" y1="2.498" x2="129.929" y2="85.422"/>
	
		<line fill="none" stroke="#FFFFFF" stroke-width="2.1502" stroke-miterlimit="10" x1="230.677" y1="2.594" x2="138.802" y2="85.518"/>
	
		<line fill="none" stroke="#FFFFFF" stroke-width="2.1502" stroke-miterlimit="10" x1="239.55" y1="2.69" x2="147.674" y2="85.614"/>
	
		<line fill="none" stroke="#FFFFFF" stroke-width="2.1502" stroke-miterlimit="10" x1="248.422" y1="2.787" x2="156.547" y2="85.711"/>
	
		<line fill="none" stroke="#FFFFFF" stroke-width="2.1502" stroke-miterlimit="10" x1="257.295" y1="2.883" x2="165.42" y2="85.808"/>
	
		<line fill="none" stroke="#FFFFFF" stroke-width="2.1502" stroke-miterlimit="10" x1="266.167" y1="2.98" x2="174.292" y2="85.903"/>
	<line fill="none" stroke="#FFFFFF" stroke-width="2.1502" stroke-miterlimit="10" x1="275.04" y1="3.076" x2="183.165" y2="86"/>
</g>
</svg>
